D:\school\WTK\thesis\model\3dpredictsim\Results\Batchsim_tmt_linear\Pog_s1_tmt_bCst_d00_k250_ig24_act_GRF.mot
nRows=27
nColumns=19

name D:\school\WTK\thesis\model\3dpredictsim\Results\Batchsim_tmt_linear\Pog_s1_tmt_bCst_d00_k250_ig24_act_GRF.mot
datacolumns 19
datarows 27
range 0.6136340096 0.9327236946
endheader
time 	ground_force_vx	ground_force_vy	ground_force_vz	ground_force_px	ground_force_py	ground_force_pz	1_ground_force_vx	1_ground_force_vy	1_ground_force_vz	1_ground_force_px	1_ground_force_py	1_ground_force_pz	ground_torque_x	ground_torque_y	ground_torque_z	1_ground_torque_x	1_ground_torque_y	1_ground_torque_z
        0.6136340096	       71.9043636814	      387.8079542558	        3.6225658963	        0.4072449613	        0.0000000000	        0.0262728619	      -21.3303829209	       20.7311929821	      -11.5738563265	        0.9490789584	        0.0000000000	       -0.0531009818	        0.0000000000	        0.0000000000	        0.0000000000	        0.0000000000	        0.0000000000	        0.0000000000	
        0.6259066898	       46.4674219148	      287.5468006751	       14.4141946799	        0.4178986158	        0.0000000000	        0.0223213068	      -58.9368370999	       94.6302984846	      -70.7633597047	        0.9540429036	        0.0000000000	       -0.0509134585	        0.0000000000	        0.0000000000	        0.0000000000	        0.0000000000	        0.0000000000	        0.0000000000	
        0.6381793700	       32.3244808546	      227.3500074567	       19.7895992088	        0.4273625673	        0.0000000000	        0.0183037291	      -31.1758702835	      268.2772388355	      -35.0688468157	        0.9575950647	        0.0000000000	       -0.0479060046	        0.0000000000	        0.0000000000	        0.0000000000	        0.0000000000	        0.0000000000	        0.0000000000	
        0.6504520502	       27.6601350395	      198.0351620494	       20.0357592747	        0.4273036655	        0.0000000000	        0.0183183306	      -39.0397792456	      480.5376256624	        1.0208320139	        0.9610110390	        0.0000000000	       -0.0474291868	        0.0000000000	        0.0000000000	        0.0000000000	        0.0000000000	        0.0000000000	        0.0000000000	
        0.6627247304	       17.1570170676	      154.9059294909	       21.1186562358	        0.4271633697	        0.0000000000	        0.0184577087	      -86.1420130463	      733.4031460904	       16.3274380509	        0.9716525166	        0.0000000000	       -0.0495490088	        0.0000000000	        0.0000000000	        0.0000000000	        0.0000000000	        0.0000000000	        0.0000000000	
        0.6749974105	        0.2292489404	       89.2791410077	       22.1369236226	        0.4264998287	        0.0000000000	        0.0191888825	     -123.6265741423	      901.1745529907	       17.5824988149	        0.9797070492	        0.0000000000	       -0.0512688629	        0.0000000000	        0.0000000000	        0.0000000000	        0.0000000000	        0.0000000000	        0.0000000000	
        0.6872700907	      -10.6262683177	       14.0213760496	        5.8881444767	        0.4213084523	        0.0000000000	        0.0197295393	     -134.0568629752	      938.0913313161	       17.8756153158	        0.9848988039	        0.0000000000	       -0.0522046631	        0.0000000000	        0.0000000000	        0.0000000000	        0.0000000000	        0.0000000000	        0.0000000000	
        0.6995427709	        0.9550499336	       -0.7662290891	       -0.0459531582	        0.0000000000	        0.0000000000	        0.0000000000	     -117.6181155763	      899.9608384548	       17.9500155036	        0.9890572594	        0.0000000000	       -0.0526809905	        0.0000000000	        0.0000000000	        0.0000000000	        0.0000000000	        0.0000000000	        0.0000000000	
        0.7118154511	      -16.8293449985	       11.7644890162	        0.0128080271	        0.4435035837	        0.0000000000	        0.0157712456	     -102.7740324943	      830.6925442916	       19.1529960680	        0.9935264044	        0.0000000000	       -0.0527877543	        0.0000000000	        0.0000000000	        0.0000000000	        0.0000000000	        0.0000000000	        0.0000000000	
        0.7240881313	      -17.8085666187	       10.8887523118	       -0.6649199470	        0.4639384240	        0.0000000000	        0.0162607422	      -92.1461038463	      774.7491025105	       19.2792733045	        0.9991001527	        0.0000000000	       -0.0525750122	        0.0000000000	        0.0000000000	        0.0000000000	        0.0000000000	        0.0000000000	        0.0000000000	
        0.7363608115	      -14.7375702197	        8.2291622376	       -0.9584018383	        0.0000000000	        0.0000000000	        0.0000000000	      -84.7914892716	      739.4226481469	       19.4983545629	        1.0060625477	        0.0000000000	       -0.0520553734	        0.0000000000	        0.0000000000	        0.0000000000	        0.0000000000	        0.0000000000	        0.0000000000	
        0.7486334917	       -9.8922240976	        5.1533009647	       -0.8118307760	        0.0000000000	        0.0000000000	        0.0000000000	      -77.4855374186	      712.2920064088	       19.5703453178	        1.0132787419	        0.0000000000	       -0.0513640974	        0.0000000000	        0.0000000000	        0.0000000000	        0.0000000000	        0.0000000000	        0.0000000000	
        0.7609061719	       -6.5943372352	        3.2998295804	       -0.5623931637	        0.0000000000	        0.0000000000	        0.0000000000	      -69.9840642643	      687.5772098442	       19.6261157790	        1.0204792610	        0.0000000000	       -0.0506824961	        0.0000000000	        0.0000000000	        0.0000000000	        0.0000000000	        0.0000000000	        0.0000000000	
        0.7731788521	       -4.8314086750	        2.3487939949	       -0.4115668360	        0.0000000000	        0.0000000000	        0.0000000000	      -62.6158244178	      666.0757253596	       20.1426470736	        1.0277093532	        0.0000000000	       -0.0500224674	        0.0000000000	        0.0000000000	        0.0000000000	        0.0000000000	        0.0000000000	        0.0000000000	
        0.7854515323	       -3.6442934351	        1.7281917985	       -0.3135874100	        0.0000000000	        0.0000000000	        0.0000000000	      -56.0531452111	      648.6558453157	       20.8505454332	        1.0351617904	        0.0000000000	       -0.0493394036	        0.0000000000	        0.0000000000	        0.0000000000	        0.0000000000	        0.0000000000	        0.0000000000	
        0.7977242125	       -2.6524025817	        1.2311458791	       -0.2320981443	        0.0000000000	        0.0000000000	        0.0000000000	      -50.4293221425	      634.7820578204	       21.0986095305	        1.0429309410	        0.0000000000	       -0.0485861237	        0.0000000000	        0.0000000000	        0.0000000000	        0.0000000000	        0.0000000000	        0.0000000000	
        0.8099968927	       -1.8926815430	        0.8627207202	       -0.1666328439	        0.0000000000	        0.0000000000	        0.0000000000	      -45.7420493932	      623.5288391105	       20.7302279915	        1.0509250785	        0.0000000000	       -0.0477516237	        0.0000000000	        0.0000000000	        0.0000000000	        0.0000000000	        0.0000000000	        0.0000000000	
        0.8222695728	       -1.3769098504	        0.6168381640	       -0.1204220237	        0.0000000000	        0.0000000000	        0.0000000000	      -41.6786627247	      614.6208930274	       19.5342861157	        1.0588482116	        0.0000000000	       -0.0468785988	        0.0000000000	        0.0000000000	        0.0000000000	        0.0000000000	        0.0000000000	        0.0000000000	
        0.8345422530	       -1.0634381356	        0.4678961811	       -0.0912364899	        0.0000000000	        0.0000000000	        0.0000000000	      -37.5808142016	      606.9200800999	       18.2432201666	        1.0665024916	        0.0000000000	       -0.0459985416	        0.0000000000	        0.0000000000	        0.0000000000	        0.0000000000	        0.0000000000	        0.0000000000	
        0.8468149332	       -0.8834782654	        0.3816740909	       -0.0736388902	        0.0000000000	        0.0000000000	        0.0000000000	      -33.7680579619	      599.5666816328	       17.4696711075	        1.0739067089	        0.0000000000	       -0.0451085608	        0.0000000000	        0.0000000000	        0.0000000000	        0.0000000000	        0.0000000000	        0.0000000000	
        0.8590876134	       -0.7908490205	        0.3356079441	       -0.0640114111	        0.0000000000	        0.0000000000	        0.0000000000	      -30.2019427001	      592.5388762386	       17.0432920076	        1.0810246007	        0.0000000000	       -0.0442202836	        0.0000000000	        0.0000000000	        0.0000000000	        0.0000000000	        0.0000000000	        0.0000000000	
        0.8713602936	       -0.7563384371	        0.3155137546	       -0.0595426773	        0.0000000000	        0.0000000000	        0.0000000000	      -26.6776911064	      585.4360702901	       16.8255153286	        1.0878495563	        0.0000000000	       -0.0433397326	        0.0000000000	        0.0000000000	        0.0000000000	        0.0000000000	        0.0000000000	        0.0000000000	
        0.8836329738	       -0.7643794284	        0.3137810037	       -0.0588221411	        0.0000000000	        0.0000000000	        0.0000000000	      -23.1093624642	      578.2336902626	       16.7183382330	        1.0944168877	        0.0000000000	       -0.0424635068	        0.0000000000	        0.0000000000	        0.0000000000	        0.0000000000	        0.0000000000	        0.0000000000	
        0.8959056540	       -0.8078941180	        0.3267351517	       -0.0610205798	        0.0000000000	        0.0000000000	        0.0000000000	      -19.3817420223	      571.1311668149	       16.6994688267	        1.1007586069	        0.0000000000	       -0.0415843426	        0.0000000000	        0.0000000000	        0.0000000000	        0.0000000000	        0.0000000000	        0.0000000000	
        0.9081783342	       -0.9000666740	        0.3588113004	       -0.0666005620	        0.0000000000	        0.0000000000	        0.0000000000	      -15.4411750149	      563.7908563944	       16.3180738698	        1.1068404058	        0.0000000000	       -0.0407088580	        0.0000000000	        0.0000000000	        0.0000000000	        0.0000000000	        0.0000000000	        0.0000000000	
        0.9204510144	       -1.0684745522	        0.4200137549	       -0.0768399536	        0.0000000000	        0.0000000000	        0.0000000000	      -11.6105496768	      556.5130227184	       15.5086769860	        1.1125565993	        0.0000000000	       -0.0398550392	        0.0000000000	        0.0000000000	        0.0000000000	        0.0000000000	        0.0000000000	        0.0000000000	
        0.9327236946	       -1.3298739871	        0.5160396443	       -0.0914695274	        0.0000000000	        0.0000000000	        0.0000000000	       -7.7987971990	      551.4248343890	       14.1998769010	        1.1177912180	        0.0000000000	       -0.0390405834	        0.0000000000	        0.0000000000	        0.0000000000	        0.0000000000	        0.0000000000	        0.0000000000	
